Coordinates
nRows=11
nColumns=24

# SIMM Motion File Header:
name Coordinates
datacolumns 24
datarows 11
otherdata 1
range 0.14666999999999999000 0.15667000000000000000
endheader
time	pelvis_tx	pelvis_ty	pelvis_tz	pelvis_tilt	pelvis_list	pelvis_rotation	hip_flexion_r	hip_adduction_r	hip_rotation_r	knee_angle_r	ankle_angle_r	subtalar_angle_r	mtp_angle_r	hip_flexion_l	hip_adduction_l	hip_rotation_l	knee_angle_l	ankle_angle_l	subtalar_angle_l	mtp_angle_l	lumbar_extension	lumbar_bending	lumbar_rotation
      0.14666999999999999000	      0.68291461484707550000	      0.88631505518484699000	     -0.27236567767830078000	     -0.19918828402652064000	      4.56704292102280450000	     -6.49696864307618590000	      9.74477276031483090000	     -9.55470720586262350000	     -8.98370845053062260000	    -61.00537149145212400000	     -4.12500312299801310000	      0.00000000000000022146	     -0.00000000000000128339	      9.51310634074044080000	      4.83899820641793620000	      0.72049136198930752000	    -16.25502832469224000000	      7.74322477645409980000	      0.00000000000000582927	     -0.00000000000001284049	    -12.21362673012775500000	     -6.18582479579987070000	     14.09135418404011700000
      0.14767000000000000000	      0.68481578923906838000	      0.88637063176024478000	     -0.27255143818625105000	     -0.26931376994503459000	      4.57683456202864660000	     -6.43556176709148000000	     10.06508456141228600000	     -9.56828739112104640000	     -8.97694839739422970000	    -61.06289543127085300000	     -3.87581528298496460000	      0.00000000000000022614	     -0.00000000000000130724	      9.39145938461279780000	      4.87834492311162290000	      0.77296033537047804000	    -16.13450372383316600000	      7.78757024168007830000	      0.00000000000000598341	     -0.00000000000001313424	    -12.16514346523123200000	     -6.13171278156487090000	     13.96157859534166300000
      0.14867000000000000000	      0.68671876461217629000	      0.88643199044827170000	     -0.27273621322805780000	     -0.33417505749091997000	      4.58791183431598350000	     -6.37478791243166310000	     10.37837302988117600000	     -9.58407607362207160000	     -8.96976007684741990000	    -61.11264283285878900000	     -3.64559718418629640000	      0.00000000000000022712	     -0.00000000000000132178	      9.26278081860787590000	      4.91889858297627210000	      0.82163920169934668000	    -16.01056136559102700000	      7.82284511862201540000	      0.00000000000000613714	     -0.00000000000001344133	    -12.12226551315519000000	     -6.07954456474031260000	     13.83058834203430200000
      0.14967000000000000000	      0.68862417662285114000	      0.88650115302052124000	     -0.27291965873542090000	     -0.39192621022208762000	      4.60072578425069700000	     -6.31486701100744520000	     10.68217028026902900000	     -9.60284778255993740000	     -8.96199306109933320000	    -61.15186120113470000000	     -3.44104641056570240000	      0.00000000000000022313	     -0.00000000000000132372	      9.12460323795404450000	      4.96107997827397180000	      0.86519165581110857000	    -15.88200040263988700000	      7.84587612189896970000	      0.00000000000000629038	     -0.00000000000001376699	    -12.08695764736990900000	     -6.03000027132826940000	     13.69795183572474400000
      0.15067000000000000000	      0.69052958863352587000	      0.88657031559277077000	     -0.27310310424278400000	     -0.44967736295325528000	      4.61353973418541140000	     -6.25494610958322730000	     10.98596753065688100000	     -9.62161949149780150000	     -8.95422604535124480000	    -61.19107956941060400000	     -3.23649563694510830000	      0.00000000000000021914	     -0.00000000000000132566	      8.98642565730021130000	      5.00326137357167160000	      0.90874410992287047000	    -15.75343943968874600000	      7.86890712517592390000	      0.00000000000000644361	     -0.00000000000001409265	    -12.05164978158462800000	     -5.98045597791622720000	     13.56531532941518700000
      0.15167000000000000000	      0.69243785490151011000	      0.88664163241190086000	     -0.27328625854751865000	     -0.50323526421377607000	      4.62774658745579440000	     -6.19471975916791710000	     11.28197493163901800000	     -9.64261617822045380000	     -8.94621024397308060000	    -61.21325191387931900000	     -3.06001010617065110000	      0.00000000000000026678	     -0.00000000000000140509	      8.84219563425015840000	      5.04572347364961700000	      0.94607497070045121000	    -15.62165765045255800000	      7.88688010276530790000	      0.00000000000000656984	     -0.00000000000001439635	    -12.02045058277684800000	     -5.93228073859790420000	     13.42929056699344200000
      0.15267000000000000000	      0.69434636152833040000	      0.88671313064154056000	     -0.27346938832989343000	     -0.55644004908241418000	      4.64207073800815010000	     -6.13446768669744370000	     11.57732634441374700000	     -9.66380023174733440000	     -8.93817349219767720000	    -61.23398880176621600000	     -2.88588796747046180000	      0.00000000000000031876	     -0.00000000000000149105	      8.69745593114967440000	      5.08820921205688140000	      0.98288190711878332000	    -15.48960463337215100000	      7.90442714077216380000	      0.00000000000000669378	     -0.00000000000001469821	    -11.98959737744661100000	     -5.88422078820161510000	     13.29298047735450600000
      0.15367000000000000000	      0.69625529441751621000	      0.88678015578851399000	     -0.27365323019390869000	     -0.61168340949204902000	      4.65612634943095390000	     -6.07329113250106810000	     11.87345730287336000000	     -9.68445921277004910000	     -8.93047348486934740000	    -61.24855265649176100000	     -2.71148689717107190000	      0.00000000000000037329	     -0.00000000000000155929	      8.55508563231685670000	      5.12955953818636350000	      1.01838033738490810000	    -15.35854753662802400000	      7.92838269493497720000	      0.00000000000000682237	     -0.00000000000001500431	    -11.95627325608994900000	     -5.83521290522981760000	     13.15511046242328400000
      0.15467000000000000000	      0.69816481035545719000	      0.88684106257860096000	     -0.27383804605503820000	     -0.66971516744097215000	      4.66981464856486640000	     -6.01085005682006730000	     12.17065453688949900000	     -9.70439999088631210000	     -8.92323408219790260000	    -61.25467293376289000000	     -2.53670429958991180000	      0.00000000000000043129	     -0.00000000000000160331	      8.41595624405942470000	      5.16935682851325850000	      1.05208897116736950000	    -15.22885267628827100000	      7.96110392410977670000	      0.00000000000000695730	     -0.00000000000001531620	    -11.91956937468549100000	     -5.78490842431116810000	     13.01510675572591700000
      0.15567000000000000000	      0.70007432629339805000	      0.88690196936868804000	     -0.27402286191616776000	     -0.72774692538989527000	      4.68350294769877880000	     -5.94840898113906570000	     12.46785177090563800000	     -9.72434076900257690000	     -8.91599467952645950000	    -61.26079321103402000000	     -2.36192170200875130000	      0.00000000000000048929	     -0.00000000000000164732	      8.27682685580199440000	      5.20915411884015270000	      1.08579760494983080000	    -15.09915781594852100000	      7.99382515328457630000	      0.00000000000000709223	     -0.00000000000001562809	    -11.88286549328103400000	     -5.73460394339251870000	     12.87510304902855100000
      0.15667000000000000000	      0.70198375230196364000	      0.88694844708848264000	     -0.27420966112239253000	     -0.79357377599846102000	      4.69535298184100820000	     -5.88341494355060580000	     12.77056600750137400000	     -9.74131868231996560000	     -8.91000043215990800000	    -61.25633624301156700000	     -2.16769589484716540000	      0.00000000000000052459	     -0.00000000000000164360	      8.14714966422300080000	      5.24497163887603430000	      1.11816165436138500000	    -14.97351596271781000000	      8.04882864730044470000	      0.00000000000000722523	     -0.00000000000001590046	    -11.83715828792385600000	     -5.68051124648681590000	     12.73212971201360600000
